# xmcd
#
# Track frame offsets: 
#        150
#        15802
#        32052
#        44422
#        60240
#        75817
#        82000
#        100425
#        114517
#        131460
#        145300
#
# Disc length: 2010 seconds
#
# Revision: 9
# Processed by: cddbd v1.5.2PL0 Copyright (c) Steve Scherf et al.
# Submitted via: ExactAudioCopyFreeDBPlugin 1.0
#
DISCID=7d07d80b
DTITLE=Pino Daniele - Vai Mò
DYEAR=1981
DGENRE=Blues
TTITLE0=Che Te Ne Fotte
TTITLE1=Yes I Know My Way
TTITLE2=Notte Che Se Ne Va
TTITLE3=Viento 'e Terra
TTITLE4=Nun Ce Sta Piacere
TTITLE5=Sulo Pe' Parlà
TTITLE6=Puorteme A Casa Mia
TTITLE7=Ma Che Ho
TTITLE8=Un Giorno Che Non Va
TTITLE9=Have You Seen My Shoes
TTITLE10=E' Sempe Sera
EXTD=YEAR: 1981
EXTT0=
EXTT1=
EXTT2=
EXTT3=
EXTT4=
EXTT5=
EXTT6=
EXTT7=
EXTT8=
EXTT9=
EXTT10=
PLAYORDER=
